<?xml version="1.0" encoding="utf-8"?>
<!-- Generator: Adobe Illustrator 25.2.1, SVG Export Plug-In . SVG Version: 6.00 Build 0)  -->
<svg version="1.1" id="Layer_1" xmlns="http://www.w3.org/2000/svg" xmlns:xlink="http://www.w3.org/1999/xlink" x="0px" y="0px"
	 viewBox="0 0 1000 1000" style="enable-background:new 0 0 1000 1000;" xml:space="preserve">
<style type="text/css">
	.st0{fill:#29ABE2;}
	.st1{fill:#0071BC;}
	.st2{stroke:#000000;stroke-miterlimit:10;}
	.st3{fill:#333333;stroke:#333333;stroke-miterlimit:10;}
	.st4{fill:#4D4D4D;stroke:#4D4D4D;stroke-miterlimit:10;}
	.st5{fill:#666666;stroke:#666666;stroke-miterlimit:10;}
	.st6{fill:#808080;stroke:#808080;stroke-miterlimit:10;}
	.st7{fill:#999999;stroke:#999999;stroke-miterlimit:10;}
	.st8{fill:#B3B3B3;stroke:#B3B3B3;stroke-miterlimit:10;}
</style>
<path class="st0" d="M0.35,299.04C0.35,299.04,0.35,299.04,0.35,299.04c60.52,0.01,217.75,0.01,217.75,0.01L210.97,1000H283V0
	C283,0,112.4,298.79,0.35,299.04z"/>
<path class="st1" d="M565.35,299.63C565.35,299.63,565.35,299.64,565.35,299.63c-60.47,0.01-217.58,0.01-217.58,0.01l7.12,700.01
	h-71.98V1C282.92,1,453.38,299.38,565.35,299.63z"/>
<rect x="427.46" y="891.75" class="st2" width="573.51" height="108.25"/>
<rect x="473.57" y="759.13" class="st3" width="525.93" height="108.25"/>
<rect x="528.03" y="626.52" class="st4" width="471.47" height="108.25"/>
<rect x="565.35" y="493.91" class="st5" width="435.15" height="108.25"/>
<rect x="621.33" y="361.3" class="st6" width="379.17" height="108.25"/>
<rect x="685.31" y="228.69" class="st7" width="315.19" height="108.25"/>
<rect x="757.28" y="96.08" class="st8" width="243.22" height="108.25"/>
</svg>
